<svg xmlns="http://www.w3.org/2000/svg" viewBox="0 0 120 72" fill="none">
  <g fill="#000000">
    <rect x="2" y="18" width="58" height="30" rx="6"/>
    <rect x="9"  y="24" width="10" height="12" rx="2" fill="#ffffff"/>
    <rect x="23" y="24" width="10" height="12" rx="2" fill="#ffffff"/>
    <rect x="37" y="24" width="10" height="12" rx="2" fill="#ffffff"/>
    <circle cx="18" cy="49" r="7" fill="#ffffff"/>
    <circle cx="18" cy="49" r="3.6" fill="#000000"/>
    <circle cx="46" cy="49" r="7" fill="#ffffff"/>
    <circle cx="46" cy="49" r="3.6" fill="#000000"/>

    <rect x="38" y="14" width="44" height="34" rx="8"/>
    <rect x="46" y="20" width="28" height="13" rx="3" fill="#ffffff"/>
    <rect x="54" y="10" width="12" height="7" rx="1.5"/>
    <rect x="55.4" y="11.2" width="9.2" height="4.6" rx="0.8" fill="#ffffff"/>
    <circle cx="49" cy="50" r="8" fill="#ffffff"/>
    <circle cx="49" cy="50" r="4.2" fill="#000000"/>
    <circle cx="71" cy="50" r="8" fill="#ffffff"/>
    <circle cx="71" cy="50" r="4.2" fill="#000000"/>

    <rect x="76" y="20" width="42" height="28" rx="6"/>
    <rect x="83" y="25" width="12" height="11" rx="2" fill="#ffffff"/>
    <circle cx="93" cy="50" r="7" fill="#ffffff"/>
    <circle cx="93" cy="50" r="3.6" fill="#000000"/>
    <circle cx="112" cy="50" r="7" fill="#ffffff"/>
    <circle cx="112" cy="50" r="3.6" fill="#000000"/>
  </g>
</svg>
