<svg xmlns="http://www.w3.org/2000/svg" viewBox="0 0 120 68" fill="none">
  <mask id="allVehiclesMask" maskUnits="userSpaceOnUse" x="0" y="0" width="120" height="68">
    <rect x="0" y="0" width="120" height="68" fill="#ffffff"/>
    <rect x="8"  y="21" width="11" height="13" rx="2" fill="#000000"/>
    <rect x="23" y="21" width="11" height="13" rx="2" fill="#000000"/>
    <rect x="38" y="21" width="10" height="12" rx="2" fill="#000000"/>
    <circle cx="17" cy="47" r="4" fill="#000000"/>
    <circle cx="47" cy="47" r="4" fill="#000000"/>

    <rect x="45" y="18" width="30" height="14" rx="3" fill="#000000"/>
    <rect x="54.6" y="7.6" width="10.8" height="5.4" rx="1" fill="#000000"/>
    <circle cx="48.5" cy="48.5" r="4.6" fill="#000000"/>
    <circle cx="72.5" cy="48.5" r="4.6" fill="#000000"/>

    <rect x="84" y="24" width="13" height="12" rx="2" fill="#000000"/>
    <circle cx="92" cy="49" r="4" fill="#000000"/>
    <circle cx="113" cy="49" r="4" fill="#000000"/>
  </mask>

  <g fill="#000000" mask="url(#allVehiclesMask)">
    <rect x="1" y="16" width="60" height="32" rx="7"/>
    <rect x="37" y="12" width="46" height="36" rx="9"/>
    <rect x="83" y="19" width="36" height="30" rx="6"/>
  </g>
</svg>
